<svg width="677.85751953125px" height="125.01754150390624px" xmlns="http://www.w3.org/2000/svg" viewBox="-88.92875976562499 12.491229248046878 677.85751953125 125.01754150390624" style="background: rgba(0, 0, 0, 0);" preserveAspectRatio="xMidYMid"><defs><linearGradient id="editing-gradient-gradient" x1="0.0019026509541272274" x2="0.9980973490458728" y1="0.45642212862617093" y2="0.5435778713738291" gradientUnits="objectBoundingBox"><stop offset="0" stop-color="#ff00ff"></stop><stop offset="1" stop-color="rgba(0%,40.57142857142861%,100%,0.611)"></stop></linearGradient></defs><g><g transform="translate(8.57000121474266, 105.39500045776367)"><path d="M14.78 0L0.40 0L8.78-43.56L23.30-43.56L14.78 0ZM72.27 1.32L72.27 1.32L72.27 1.32Q64.28 1.32 64.28-4.88L64.28-4.88L64.28-4.88Q64.28-7.59 65.44-12.84L65.44-12.84L65.44-12.84Q66.59-18.08 66.99-20.20L66.99-20.20L66.99-20.20Q67.91-25.01 67.91-26.53L67.91-26.53L67.91-26.53Q67.91-29.90 65.41-29.90L65.41-29.90L65.41-29.90Q63.76-29.90 62.17-27.62L62.17-27.62L62.17-27.62Q60.59-25.34 59.86-20.79L59.86-20.79L55.77 0L42.90 1.32L46.46-16.63L46.46-16.63Q47.06-19.60 47.59-22.97L47.59-22.97L47.59-22.97Q48.11-26.33 48.11-26.86L48.11-26.86L48.11-26.86Q48.11-29.90 45.87-29.90L45.87-29.90L45.87-29.90Q44.35-29.90 42.70-27.65L42.70-27.65L42.70-27.65Q41.05-25.41 40.13-20.79L40.13-20.79L36.10 0L23.10 1.32L30.03-33.66L40.79-34.98L39.67-28.31L39.67-28.31Q41.38-31.88 44.55-33.43L44.55-33.43L44.55-33.43Q47.72-34.98 52.67-34.98L52.67-34.98L52.67-34.98Q55.51-34.98 57.35-33.59L57.35-33.59L57.35-33.59Q59.20-32.21 59.80-29.96L59.80-29.96L59.80-29.96Q60.92-32.27 63.79-33.63L63.79-33.63L63.79-33.63Q66.66-34.98 70.19-34.98L70.19-34.98L70.19-34.98Q73.72-34.98 75.47-34.22L75.47-34.22L75.47-34.22Q77.22-33.46 78.28-32.21L78.28-32.21L78.28-32.21Q80.06-29.90 80.06-25.67L80.06-25.67L80.06-25.67Q80.06-21.52 78.28-12.87L78.28-12.87L78.28-12.87Q77.35-8.65 77.35-7.10L77.35-7.10L77.35-7.10Q77.35-5.54 78.24-4.62L78.24-4.62L78.24-4.62Q79.13-3.70 80.45-3.56L80.45-3.56L80.45-3.56Q79.79-1.32 77.52 0L77.52 0L77.52 0Q75.24 1.32 72.27 1.32ZM88.41-1.98L88.41-1.98L88.41-1.98Q86.86-3.70 86.16-6.40L86.16-6.40L86.16-6.40Q85.47-9.11 85.47-13.53L85.47-13.53L85.47-13.53Q85.47-17.95 86.99-21.98L86.99-21.98L86.99-21.98Q88.51-26.00 91.28-28.91L91.28-28.91L91.28-28.91Q96.95-34.98 106.33-34.98L106.33-34.98L106.33-34.98Q109.69-34.98 112.13-33.86L112.13-33.86L123.42-34.98L118.54-9.24L118.54-9.24Q118.34-8.45 118.34-7.00L118.34-7.00L118.34-7.00Q118.34-5.54 119.23-4.62L119.23-4.62L119.23-4.62Q120.12-3.70 121.44-3.56L121.44-3.56L121.44-3.56Q120.78-1.32 118.37 0L118.37 0L118.37 0Q115.96 1.32 113.26 1.32L113.26 1.32L113.26 1.32Q110.55 1.32 108.73 0.30L108.73 0.30L108.73 0.30Q106.92-0.73 106.39-2.44L106.39-2.44L106.39-2.44Q105.34-0.79 103.09 0.26L103.09 0.26L103.09 0.26Q100.85 1.32 97.84 1.32L97.84 1.32L97.84 1.32Q94.84 1.32 92.40 0.53L92.40 0.53L92.40 0.53Q89.96-0.26 88.41-1.98ZM102.33-28.78L102.33-28.78L102.33-28.78Q101.57-27.59 100.91-25.58L100.91-25.58L100.91-25.58Q100.25-23.56 99.17-18.18L99.17-18.18L99.17-18.18Q98.08-12.80 98.08-8.98L98.08-8.98L98.08-8.98Q98.08-5.15 98.67-4.03L98.67-4.03L98.67-4.03Q99.26-2.90 100.32-2.90L100.32-2.90L100.32-2.90Q102.43-2.90 103.98-4.92L103.98-4.92L103.98-4.92Q105.53-6.93 106.13-10.49L106.13-10.49L109.63-29.83L109.63-29.83Q108.24-31.02 106.62-31.02L106.62-31.02L106.62-31.02Q105.01-31.02 104.05-30.49L104.05-30.49L104.05-30.49Q103.09-29.96 102.33-28.78ZM131.41-27.59L131.41-27.59L131.41-27.59Q133.65-30.76 137.05-32.87L137.05-32.87L137.05-32.87Q140.45-34.98 144.61-34.98L144.61-34.98L144.61-34.98Q148.76-34.98 150.74-33.66L150.74-33.66L163.68-34.98L159.19-9.64L159.19-9.64Q156.88 3.30 152.00 8.38L152.00 8.38L152.00 8.38Q147.31 13.20 138.20 13.20L138.20 13.20L138.20 13.20Q131.27 13.20 127.31 11.02L127.31 11.02L127.31 11.02Q123.35 8.84 123.35 5.21L123.35 5.21L123.35 5.21Q123.35 2.51 125.40 0.96L125.40 0.96L125.40 0.96Q127.45-0.59 130.61-0.59L130.61-0.59L130.61-0.59Q133.39-0.59 135.50 0.66L135.50 0.66L135.50 0.66Q136.75 1.32 137.35 2.24L137.35 2.24L137.35 2.24Q135.83 3.56 135.83 5.74L135.83 5.74L135.83 5.74Q135.83 8.58 138.47 8.58L138.47 8.58L138.47 8.58Q142.89 8.58 145.40-1.85L145.40-1.85L145.40-1.85Q146.12-4.69 146.72-7.52L146.72-7.52L146.72-7.52Q143.75-3.89 137.02-3.89L137.02-3.89L137.02-3.89Q132.33-3.89 129.62-6.14L129.62-6.14L129.62-6.14Q126.92-8.38 126.92-13.66L126.92-13.66L126.92-13.66Q126.92-16.96 128.04-20.69L128.04-20.69L128.04-20.69Q129.16-24.42 131.41-27.59ZM139.99-13.46L139.99-13.46L139.99-13.46Q139.99-8.98 142.30-8.98L142.30-8.98L142.30-8.98Q143.88-8.98 145.40-10.69L145.40-10.69L145.40-10.69Q146.59-12.08 147.05-14.12L147.05-14.12L150.41-31.09L150.41-31.09Q150.08-31.15 149.75-31.28L149.75-31.28L149.75-31.28Q149.09-31.55 148.24-31.55L148.24-31.55L148.24-31.55Q144.21-31.55 141.83-24.95L141.83-24.95L141.83-24.95Q139.99-19.80 139.99-13.46ZM192.98-11.15L192.98-11.15L192.98-11.15Q194.63-10.03 194.63-7.56L194.63-7.56L194.63-7.56Q194.63-5.08 193.38-3.50L193.38-3.50L193.38-3.50Q192.13-1.91 190.08-0.86L190.08-0.86L190.08-0.86Q185.86 1.32 181.30 1.32L181.30 1.32L181.30 1.32Q176.75 1.32 174.08 0.33L174.08 0.33L174.08 0.33Q171.40-0.66 169.62-2.51L169.62-2.51L169.62-2.51Q166.12-6.01 166.12-12.41L166.12-12.41L166.12-12.41Q166.12-22.37 171.53-28.45L171.53-28.45L171.53-28.45Q177.34-34.98 187.44-34.98L187.44-34.98L187.44-34.98Q193.71-34.98 196.81-32.34L196.81-32.34L196.81-32.34Q199.12-30.36 199.12-27.13L199.12-27.13L199.12-27.13Q199.12-15.51 179.06-15.51L179.06-15.51L179.06-15.51Q178.79-13.79 178.79-12.34L178.79-12.34L178.79-12.34Q178.79-9.31 180.15-8.15L180.15-8.15L180.15-8.15Q181.50-7.00 184.01-7.00L184.01-7.00L184.01-7.00Q186.52-7.00 189.19-8.15L189.19-8.15L189.19-8.15Q191.86-9.31 192.98-11.15ZM179.52-18.35L179.52-18.35L179.52-18.35Q184.21-18.35 186.91-21.25L186.91-21.25L186.91-21.25Q189.62-24.02 189.62-28.45L189.62-28.45L189.62-28.45Q189.62-29.96 189.06-30.79L189.06-30.79L189.06-30.79Q188.50-31.61 187.37-31.61L187.37-31.61L187.37-31.61Q186.25-31.61 185.30-31.19L185.30-31.19L185.30-31.19Q184.34-30.76 183.35-29.30L183.35-29.30L183.35-29.30Q180.91-26.00 179.52-18.35ZM221.10-23.17L221.10-23.17L221.10-23.17Q222.02-25.61 222.02-27.72L222.02-27.72L222.02-27.72Q222.02-31.61 218.86-31.61L218.86-31.61L218.86-31.61Q217.21-31.61 215.85-30.13L215.85-30.13L215.85-30.13Q214.50-28.64 214.50-26.80L214.50-26.80L214.50-26.80Q214.50-25.48 215.56-24.42L215.56-24.42L215.56-24.42Q217.07-22.97 220.97-20.59L220.97-20.59L220.97-20.59Q224.86-18.22 226.35-16.27L226.35-16.27L226.35-16.27Q227.83-14.32 227.83-11.65L227.83-11.65L227.83-11.65Q227.83-8.98 226.55-6.53L226.55-6.53L226.55-6.53Q225.26-4.09 222.95-2.38L222.95-2.38L222.95-2.38Q218.00 1.32 210.08 1.32L210.08 1.32L210.08 1.32Q205.79 1.32 202.49-0.92L202.49-0.92L202.49-0.92Q199.19-3.10 199.19-5.68L199.19-5.68L199.19-5.68Q199.19-8.25 201.07-9.77L201.07-9.77L201.07-9.77Q202.95-11.29 205.72-11.29L205.72-11.29L205.72-11.29Q208.49-11.29 210.21-10.23L210.21-10.23L210.21-10.23Q209.35-8.05 209.35-6.60L209.35-6.60L209.35-6.60Q209.35-2.24 213.05-2.24L213.05-2.24L213.05-2.24Q214.63-2.24 215.69-3.23L215.69-3.23L215.69-3.23Q216.74-4.22 216.74-5.94L216.74-5.94L216.74-5.94Q216.74-9.31 211.07-12.87L211.07-12.87L211.07-12.87Q206.45-15.91 205.39-17.09L205.39-17.09L205.39-17.09Q203.61-19.21 203.61-21.85L203.61-21.85L203.61-21.85Q203.61-24.49 204.86-26.99L204.86-26.99L204.86-26.99Q206.12-29.50 208.43-31.28L208.43-31.28L208.43-31.28Q213.25-34.98 221.63-34.98L221.63-34.98L221.63-34.98Q225.92-34.98 228.46-33.26L228.46-33.26L228.46-33.26Q231-31.55 231-28.64L231-28.64L231-28.64Q231-25.74 229.25-24.09L229.25-24.09L229.25-24.09Q227.50-22.44 224.33-22.44L224.33-22.44L224.33-22.44Q222.16-22.44 221.10-23.17ZM273.77-21.25L287.10-22.44L287.10-22.44Q282.35-12.01 282.35 0.07L282.35 0.07L282.35 0.07Q280.57 1.32 277.96 1.32L277.96 1.32L277.96 1.32Q275.35 1.32 273.70 0.10L273.70 0.10L273.70 0.10Q272.05-1.12 271.72-2.38L271.72-2.38L271.72-2.38Q270.07-0.66 267.40 0.33L267.40 0.33L267.40 0.33Q264.73 1.32 261.89 1.32L261.89 1.32L261.89 1.32Q259.05 1.32 256.57 0.40L256.57 0.40L256.57 0.40Q254.10-0.53 252.19-2.57L252.19-2.57L252.19-2.57Q247.96-7.06 247.96-15.58L247.96-15.58L247.96-15.58Q247.96-28.78 255.02-36.70L255.02-36.70L255.02-36.70Q262.28-44.88 275.15-44.88L275.15-44.88L275.15-44.88Q284.06-44.88 287.23-40.26L287.23-40.26L287.23-40.26Q288.22-38.81 288.22-37.06L288.22-37.06L288.22-37.06Q288.22-35.31 287.46-33.83L287.46-33.83L287.46-33.83Q286.70-32.34 285.52-31.15L285.52-31.15L285.52-31.15Q282.68-28.51 279.18-28.51L279.18-28.51L279.18-28.51Q277.79-28.51 276.47-28.97L276.47-28.97L276.47-28.97Q276.74-30.95 276.74-33.26L276.74-33.26L276.74-33.26Q276.74-35.57 276.57-36.63L276.57-36.63L276.57-36.63Q276.41-37.69 276.01-38.54L276.01-38.54L276.01-38.54Q275.15-40.33 273.27-40.33L273.27-40.33L273.27-40.33Q271.39-40.33 269.31-38.31L269.31-38.31L269.31-38.31Q267.23-36.30 265.58-33L265.58-33L265.58-33Q261.95-25.61 261.95-16.70L261.95-16.70L261.95-16.70Q261.95-12.61 263.54-9.70L263.54-9.70L263.54-9.70Q265.25-6.53 268.29-6.53L268.29-6.53L268.29-6.53Q269.35-6.53 270.30-7.06L270.30-7.06L270.30-7.06Q271.26-7.59 271.66-7.99L271.66-7.99L273.77-21.25ZM293.20-1.98L293.20-1.98L293.20-1.98Q291.65-3.70 290.96-6.40L290.96-6.40L290.96-6.40Q290.27-9.11 290.27-13.53L290.27-13.53L290.27-13.53Q290.27-17.95 291.79-21.98L291.79-21.98L291.79-21.98Q293.30-26.00 296.08-28.91L296.08-28.91L296.08-28.91Q301.75-34.98 311.12-34.98L311.12-34.98L311.12-34.98Q314.49-34.98 316.93-33.86L316.93-33.86L328.22-34.98L323.33-9.24L323.33-9.24Q323.14-8.45 323.14-7.00L323.14-7.00L323.14-7.00Q323.14-5.54 324.03-4.62L324.03-4.62L324.03-4.62Q324.92-3.70 326.24-3.56L326.24-3.56L326.24-3.56Q325.58-1.32 323.17 0L323.17 0L323.17 0Q320.76 1.32 318.05 1.32L318.05 1.32L318.05 1.32Q315.35 1.32 313.53 0.30L313.53 0.30L313.53 0.30Q311.72-0.73 311.19-2.44L311.19-2.44L311.19-2.44Q310.13-0.79 307.89 0.26L307.89 0.26L307.89 0.26Q305.65 1.32 302.64 1.32L302.64 1.32L302.64 1.32Q299.64 1.32 297.20 0.53L297.20 0.53L297.20 0.53Q294.76-0.26 293.20-1.98ZM307.13-28.78L307.13-28.78L307.13-28.78Q306.37-27.59 305.71-25.58L305.71-25.58L305.71-25.58Q305.05-23.56 303.96-18.18L303.96-18.18L303.96-18.18Q302.87-12.80 302.87-8.98L302.87-8.98L302.87-8.98Q302.87-5.15 303.47-4.03L303.47-4.03L303.47-4.03Q304.06-2.90 305.12-2.90L305.12-2.90L305.12-2.90Q307.23-2.90 308.78-4.92L308.78-4.92L308.78-4.92Q310.33-6.93 310.93-10.49L310.93-10.49L314.42-29.83L314.42-29.83Q313.04-31.02 311.42-31.02L311.42-31.02L311.42-31.02Q309.80-31.02 308.85-30.49L308.85-30.49L308.85-30.49Q307.89-29.96 307.13-28.78ZM347.56-3.63L347.56-3.63L347.56-3.63Q345.51 1.32 338.98 1.32L338.98 1.32L338.98 1.32Q335.68 1.32 333.56-0.99L333.56-0.99L333.56-0.99Q331.85-2.90 331.85-5.08L331.85-5.08L331.85-5.08Q331.85-10.03 334.16-20.86L334.16-20.86L338.98-46.20L352.37-47.52L345.97-14.12L345.97-14.12Q344.85-9.24 344.85-7.52L344.85-7.52L344.85-7.52Q344.85-3.76 347.56-3.63ZM368.94-3.63L368.94-3.63L368.94-3.63Q366.89 1.32 360.36 1.32L360.36 1.32L360.36 1.32Q357.06 1.32 354.95-0.99L354.95-0.99L354.95-0.99Q353.23-2.90 353.23-5.08L353.23-5.08L353.23-5.08Q353.23-10.03 355.54-20.86L355.54-20.86L360.36-46.20L373.76-47.52L367.36-14.12L367.36-14.12Q366.23-9.24 366.23-7.52L366.23-7.52L366.23-7.52Q366.23-3.76 368.94-3.63ZM401.28-11.15L401.28-11.15L401.28-11.15Q402.93-10.03 402.93-7.56L402.93-7.56L402.93-7.56Q402.93-5.08 401.68-3.50L401.68-3.50L401.68-3.50Q400.42-1.91 398.38-0.86L398.38-0.86L398.38-0.86Q394.15 1.32 389.60 1.32L389.60 1.32L389.60 1.32Q385.04 1.32 382.37 0.33L382.37 0.33L382.37 0.33Q379.70-0.66 377.92-2.51L377.92-2.51L377.92-2.51Q374.42-6.01 374.42-12.41L374.42-12.41L374.42-12.41Q374.42-22.37 379.83-28.45L379.83-28.45L379.83-28.45Q385.64-34.98 395.74-34.98L395.74-34.98L395.74-34.98Q402.01-34.98 405.11-32.34L405.11-32.34L405.11-32.34Q407.42-30.36 407.42-27.13L407.42-27.13L407.42-27.13Q407.42-15.51 387.35-15.51L387.35-15.51L387.35-15.51Q387.09-13.79 387.09-12.34L387.09-12.34L387.09-12.34Q387.09-9.31 388.44-8.15L388.44-8.15L388.44-8.15Q389.80-7.00 392.30-7.00L392.30-7.00L392.30-7.00Q394.81-7.00 397.49-8.15L397.49-8.15L397.49-8.15Q400.16-9.31 401.28-11.15ZM387.82-18.35L387.82-18.35L387.82-18.35Q392.50-18.35 395.21-21.25L395.21-21.25L395.21-21.25Q397.91-24.02 397.91-28.45L397.91-28.45L397.91-28.45Q397.91-29.96 397.35-30.79L397.35-30.79L397.35-30.79Q396.79-31.61 395.67-31.61L395.67-31.61L395.67-31.61Q394.55-31.61 393.59-31.19L393.59-31.19L393.59-31.19Q392.63-30.76 391.64-29.30L391.64-29.30L391.64-29.30Q389.20-26.00 387.82-18.35ZM430.32-18.55L430.32-18.55L430.32-18.55Q432.70-22.77 432.70-27.06L432.70-27.06L432.70-27.06Q432.70-29.90 430.65-29.90L430.65-29.90L430.65-29.90Q429.07-29.90 427.42-27.19L427.42-27.19L427.42-27.19Q425.70-24.49 425.17-20.99L425.17-20.99L421.74 0L408.08 1.32L414.81-33.66L425.70-34.98L424.51-28.31L424.51-28.31Q427.75-34.98 435.01-34.98L435.01-34.98L435.01-34.98Q438.83-34.98 440.91-33L440.91-33L440.91-33Q442.99-31.02 442.99-26.96L442.99-26.96L442.99-26.96Q442.99-22.90 440.32-20.33L440.32-20.33L440.32-20.33Q437.65-17.75 433.09-17.75L433.09-17.75L433.09-17.75Q431.11-17.75 430.32-18.55ZM465.04-7.46L465.04-7.46L465.04-7.46Q461.60-3.89 455.33-3.89L455.33-3.89L455.33-3.89Q447.48-3.89 445.83-9.64L445.83-9.64L445.83-9.64Q445.30-11.35 445.30-13.27L445.30-13.27L445.30-13.27Q445.30-15.18 445.70-17.16L445.70-17.16L448.80-33.66L462.20-34.98L458.57-15.77L458.57-15.77Q458.44-14.92 458.24-13.99L458.24-13.99L458.24-13.99Q458.04-13.07 458.04-12.11L458.04-12.11L458.04-12.11Q458.04-11.15 458.37-10.53L458.37-10.53L458.37-10.53Q458.70-9.90 459.16-9.50L459.16-9.50L459.16-9.50Q459.95-8.98 461.37-8.98L461.37-8.98L461.37-8.98Q462.79-8.98 464.01-10.69L464.01-10.69L464.01-10.69Q465.23-12.41 465.83-15.38L465.83-15.38L469.46-33.66L482.46-34.98L477.51-9.04L477.51-9.04Q475.07 3.63 470.05 8.65L470.05 8.65L470.05 8.65Q467.48 11.22 464.15 12.24L464.15 12.24L464.15 12.24Q460.81 13.27 456.52 13.27L456.52 13.27L456.52 13.27Q449.59 13.27 445.63 11.09L445.63 11.09L445.63 11.09Q441.67 8.91 441.67 5.28L441.67 5.28L441.67 5.28Q441.67 2.57 443.72 1.02L443.72 1.02L443.72 1.02Q445.76-0.53 448.93-0.53L448.93-0.53L448.93-0.53Q451.70-0.53 453.82 0.66L453.82 0.66L453.82 0.66Q455.07 1.39 455.66 2.31L455.66 2.31L455.66 2.31Q454.15 3.63 454.15 5.81L454.15 5.81L454.15 5.81Q454.15 8.71 456.79 8.71L456.79 8.71L456.79 8.71Q461.14 8.71 463.65-1.32L463.65-1.32L463.65-1.32Q464.38-4.29 465.04-7.46Z" fill="url(#editing-gradient-gradient)"></path></g></g><style>text {
  font-size: 64px;
  font-family: Arial Black;
  dominant-baseline: central;
  text-anchor: middle;
}</style></svg>